<svg xmlns="http://www.w3.org/2000/svg" viewBox="0 0 1080 833.99"><defs><style>.cls-1{fill:#ff2b00;}</style></defs><title>logo</title><g id="Camada_2" data-name="Camada 2"><g id="Camada_1-2" data-name="Camada 1"><path class="cls-1" d="M59.48,362.93c-27.85-73.56-9.22-105.91,53.9-96.48C144.47,208.06,207,211.89,232.12,268c.88-9.16,1.85-14.59,1.85-20,0-61.47-.34-122.94-.3-184.41,0-38,22.36-63,56.23-63.59,34.85-.6,57.7,24.55,57.61,64.35-.16,70-1.25,140.06-.56,210.08.1,9.91,5.75,21.75,12.59,29.29,37.29,41,58.79,89.84,67.91,143.33,2.48,14.57-5.88,33.9-15,47-28.06,40.08-59.37,77.87-88.32,117.35a54.37,54.37,0,0,0-9.81,29.46c-.85,54.46-.85,110.06.13,164.51.39,21.41-8.12,28.84-29,28.61-64.58-.74-129.17,0-193.75-.28C63.94,833.6,55,829.6,57.55,726.84c.06-2.33,0-4.68,0-7C58.4,649.11,44,649.54,8.64,580.4c-4.87-9.51-7.49-21.9-7.81-33.1C-.24,510,.19,472.61,0,435.27-.24,384.33,9.57,372.18,59.48,362.93ZM79.55,812H291.72c0-52.37-.22-104.06.1-154.63.14-23.53,3.5-45.36,19.85-65.19,29.66-36,57.66-73.45,84.3-111.73,7.22-10.39,13.26-28.36,9.19-38.63-15.61-39.41-35-77.36-54.35-115.19-3.41-6.67-13-14.24-19.89-14.42-48.81-1.24-97.66-.66-146.75-.66,3.69,33.35,24.41,49.22,64.36,53.19,8.22.81,19.88,3.51,23.33,9.29,12.06,20.21,21.22,42.16,32.32,65.18-55.75,10.34-100.9,29.64-109.35,84.48-20.89,3.17-40.64,2-56.37,9.37-42.78,20-83.51-2.18-87.1-50.84-.34-4.59,3.94-9.52,8.21-19.09C69.2,482.91,74.24,499,84.06,511.25c5.55,6.92,19.93,11.52,28.5,9.49,5.32-1.26,12.5-19.13,9.75-25.75-13.1-31.5-27.61-62.76-45.48-91.72-5.45-8.83-24.45-15.48-35-13.1-8.77,2-17.57,17.83-20.3,29-3.39,13.93.75,29.5-.65,44.15C14.45,530.72,30.09,592,66.06,649.47,75.23,664.11,78,684.3,79,702.2,80.91,737.69,79.55,774.47,79.55,812ZM321.72,287.52c.61-6.48,1.49-11.71,1.54-16.95.62-68.42,1.27-136.84,1.58-205.27.12-28.2-12.28-42.66-35-42.12-21.75.52-33.23,14.49-33.22,41.53q0,102.64.64,205.28c0,5.9,1.2,11.79,1.83,17.53ZM149.25,500.25c40.86-.65,51.46-18.13,33.79-56.68q-8.73-19-17.5-38C149.65,371,134.08,336.33,117.73,302c-6.8-14.29-18.62-21.32-34.42-15C67,293.65,62.4,307,66.65,323.35c1.54,5.92,4.74,11.43,7.38,17Q111.55,420.24,149.25,500.25ZM268.61,422.4c-6.2-23.48-17.48-38.16-45.1-41.42-28-3.31-50.17-20.69-59.09-49.72-8.73-28.43.8-41,30.39-41.72,6.55-.16,13.1-.79,21.89-1.36-3.55-7.79-5.79-13.42-8.6-18.75-11.61-22.05-32.22-29.62-52.18-19.35-19.3,9.92-24.67,28.59-14.38,51.71,8.52,19.12,17.59,38,26.33,57,14.4,31.32,28.73,62.67,42.65,93.06Z"/><path class="cls-1" d="M171.69,590.56l-43.6,40.27-6.75-6.68c8.38-19.28,27.09-28.77,42.51-41.39Z"/><path class="cls-1" d="M516.39,246.6H384.68a8.27,8.27,0,0,1-8.27-8.27V31.61a8.27,8.27,0,0,1,8.27-8.27H513.73A8.27,8.27,0,0,1,522,31.61v47a8.27,8.27,0,0,1-8.27,8.27H447v13h60.84a8.26,8.26,0,0,1,8.26,8.27v47.24a8.26,8.26,0,0,1-8.26,8.27H447v17.13h69.4a8.27,8.27,0,0,1,8.27,8.27v49.32A8.27,8.27,0,0,1,516.39,246.6ZM393,230.06H508.12V197.28h-69.4a8.27,8.27,0,0,1-8.27-8.27V155.34a8.27,8.27,0,0,1,8.27-8.27h60.84V116.36H438.72a8.26,8.26,0,0,1-8.27-8.26V78.56a8.27,8.27,0,0,1,8.27-8.27h66.74V39.88H393Z"/><path class="cls-1" d="M652.24,246.6H545.63a8.27,8.27,0,0,1-8.27-8.27V194.62a8.27,8.27,0,0,1,8.27-8.27h18V83.59H548a8.27,8.27,0,0,1-8.27-8.27V31.61A8.27,8.27,0,0,1,548,23.34H649.87a8.27,8.27,0,0,1,8.27,8.27V75.32a8.27,8.27,0,0,1-8.27,8.27H634.22V186.35h18a8.27,8.27,0,0,1,8.27,8.27v43.71A8.28,8.28,0,0,1,652.24,246.6ZM553.9,230.06H644V202.89H626a8.27,8.27,0,0,1-8.27-8.27V75.32A8.27,8.27,0,0,1,626,67.05H641.6V39.88H556.26V67.05h15.65a8.27,8.27,0,0,1,8.27,8.27v119.3a8.27,8.27,0,0,1-8.27,8.27h-18Z"/><path class="cls-1" d="M570.57,270.38c41,0,83.87,21,94.8,71.17H612.8c-9.15-16.54-22.15-22.74-42.23-22.74-33.37,0-51.68,26.28-51.68,57.59,0,34.55,20.09,56.7,51.68,56.7,21.27,0,34.85-5.32,44.6-25.11h-44V362.52h97.45c1.47,20.08,1.18,39.87-5.61,60-15.06,43.41-54,59.94-92.44,59.94-52.56,0-106.31-35.14-106.31-105.72C464.26,305.82,518,270.38,570.57,270.38Z"/><path class="cls-1" d="M740.38,454.06l-11.81,25.7h-56.4v-7.39L767,271h24.81l93.91,201.4v7.39H829.86l-12.1-25.7Zm17.43-45.18h42.82L779.07,359Z"/><path class="cls-1" d="M1080,471.78v7.68h-57.29l-35.44-64.67H958.92v64.67h-54V272.74c30.71,0,60.54-.29,91,0,49.9,0,74.41,36.92,74.41,73.24-.29,23.63-10.33,46.36-30.71,60.24Zm-84.46-101c15.06,0,22.45-13,22.45-26s-7.09-25.1-22.45-25.1H958v51.09Z"/><path class="cls-1" d="M473.23,552.32c42.52,0,89.18,23,97.16,78.26h-52c-7.38-21.26-23-29.53-45.18-29.53-31.3,0-51.68,22.44-51.68,57,0,29.83,20.08,56.11,51.68,56.11,22.44,0,40.16-10.33,45.77-32.78h52c-6.2,48.73-39.58,73.53-75.9,79.74l-3.84,15.35c20.38,3.25,24.51,19.49,19.79,34.85-8.57,27.76-51.39,26.28-74.12,13l2.95-27.17c7.38,5,27.17,7.38,29.53-.59,2.36-8.56-10.93-11.81-18-11.81l5.9-22.74c-46.95-6.2-89.77-41-89.77-104C367.51,586.87,420.37,552.32,473.23,552.32Z"/><path class="cls-1" d="M697.38,764.94c-54.64,0-105.73-35.43-105.73-107.19,0-71.47,52.87-107.5,106.61-107.5,52.86,0,105.43,36,105.43,107.5C803.69,720.94,760,764.94,697.38,764.94Zm.29-51.08c25.69,0,52-19.2,52-56.11s-25.7-56.11-51.39-56.11c-26.87,0-52.56,18.31-52.56,56.11C645.7,694.66,671.09,713.86,697.67,713.86Z"/><path class="cls-1" d="M1020.16,553.8h19.19V761.11h-54V665.72l-44,46.07h-6.2l-44-46.07v95.39h-54V553.8h19.19l82.1,89.48Z"/></g></g></svg>